{"title":"Guardians of the Galaxy S01E25 1080p WEB-DL HEVC DD5.1 x265","uid":16045366,"size":377802860,"categoryP":"video","categoryS":"hd___tv_shows","magnet":"?xt=urn:btih:4ab32c404d02e468b9408efc136762f3cbff1f46&amp;dn=Guardians+of+the+Galaxy+S01E25+1080p+WEB-DL+HEVC+DD5.1+x265&amp;tr=udp%3A%2F%2Ftracker.leechers-paradise.org%3A6969&amp;tr=udp%3A%2F%2Fzer0day.ch%3A1337&amp;tr=udp%3A%2F%2Fopen.demonii.com%3A1337&amp;tr=udp%3A%2F%2Ftracker.coppersurfer.tk%3A6969&amp;tr=udp%3A%2F%2Fexodus.desync.com%3A6969","seeders":4,"leechers":1,"uploader":"nayhtut","files":1,"time":1476558823,"description":"Source:Marvels Guardians of the Galaxy S01E25 Wont Get Fooled Again 1080p WEB-DL DD5.1 H264-iT00NZ(865 MB)\r\n\r\n\r\nComplete name:\r\nMarvels.Guardians.of.the.Galaxy.S01E25.Wont.Get.Fooled.Again.1080p.WEB-DL.HEVC.DD5.1.x265.mkv\r\nFormat                                   : Matroska\r\nFormat version                           : Version 4 / Version 2\r\nFile size                                : 360 MiB\r\nDuration                                 : 22mn 7s\r\nOverall bit rate                         : 2 277 Kbps\r\nWriting application                      : Lavf57.25.100\r\n\r\nVideo\r\n\r\nID                                       : 1\r\nFormat                                   : V_MPEGH/ISO/HEVC\r\nDuration                                 : 22mn 7s\r\nBit rate                                 : 1 848 Kbps\r\nWidth                                    : 1 920 pixels\r\nHeight                                   : 1 080 pixels\r\nDisplay aspect ratio                     : 16:9\r\nFrame rate                               : 25.000 fps\r\nBits/(Pixel*Frame)                       : 0.036\r\nStream size                              : 292 MiB (81%)\r\nWriting library                          : Lavc57.48.101 libx265\r\nLanguage                                 : English\r\nDefault                                  : Yes\r\nForced                                   : No\r\nDURATION                                 : 00:22:07.291000000\r\n\r\nAudio\r\n\r\nID                                       : 2\r\nFormat                                   : AC-3\r\nFormat/Info                              : Audio Coding 3\r\nMode extension                           : CM (complete main)\r\nFormat settings, Endianness              : Big\r\nCodec ID                                 : A_AC3\r\nDuration                                 : 22mn 7s\r\nBit rate mode                            : Constant\r\nBit rate                                 : 384 Kbps\r\nChannel(s)                               : 6 channels\r\nChannel positions                        : Front: L C R, Side: L R, LFE\r\nSampling rate                            : 48.0 KHz\r\nBit depth                                : 16 bits\r\nCompression mode                         : Lossy\r\nStream size                              : 60.8 MiB (17%)\r\nWriting library                          : Lavc57.24.102 ac3\r\nLanguage                                 : English\r\nDefault                                  : Yes\r\nForced                                   : No\r\nDURATION                                 : 00:22:07.327000000\r\n\r\nText\r\n\r\nID                                       : 3\r\nFormat                                   : ASS\r\nCodec ID                                 : S_TEXT/ASS\r\nCompression mode                         : Lossless\r\nLanguage                                 : English","torrent":{"xt":"urn:btih:4ab32c404d02e468b9408efc136762f3cbff1f46","amp;dn":"Guardians+of+the+Galaxy+S01E25+1080p+WEB-DL+HEVC+DD5.1+x265","amp;tr":["udp%3A%2F%2Ftracker.leechers-paradise.org%3A6969","udp%3A%2F%2Fzer0day.ch%3A1337","udp%3A%2F%2Fopen.demonii.com%3A1337","udp%3A%2F%2Ftracker.coppersurfer.tk%3A6969","udp%3A%2F%2Fexodus.desync.com%3A6969"],"infoHash":"4ab32c404d02e468b9408efc136762f3cbff1f46","infoHashBuffer":{"type":"Buffer","data":[74,179,44,64,77,2,228,104,185,64,142,252,19,103,98,243,203,255,31,70]},"announce":[],"urlList":[]}}